# xmcd
#
# Track frame offsets: 
#        150
#        11915
#        30588
#        49428
#        63199
#        81929
#        100100
#        131844
#        147986
#        162380
#        180143
#        200301
#        215902
#        232162
#        256460
#        269386
#        283121
#        299479
#
# Disc length: 4181 seconds
#
# Revision: 0
# Processed by: cddbd v1.5.2PL0 Copyright (c) Steve Scherf et al.
# Submitted via: ExactAudioCopy v0.99pb5
#
DISCID=1b105312
DTITLE=Mantus - Die Hochzeit von Himmel und Hölle
DYEAR=2010
DGENRE=Metal
TTITLE0=Rintrah
TTITLE1=Himmel and Hölle
TTITLE2=Die Stimme des Teufels
TTITLE3=Hiob
TTITLE4=Wer seine Lust unterdrückt
TTITLE5=Die fünf Sinne
TTITLE6=Sprichwörter der Hölle (Part 1 and 2)
TTITLE7=Die alten Dichter
TTITLE8=Die Pforten der Wahrnehmung
TTITLE9=In einer Druckerei der Hölle
TTITLE10=Phantasie (Leviathan)
TTITLE11=Das Schwert
TTITLE12=Vater unser
TTITLE13=Ich sah einmal einen Teufel
TTITLE14=Phantasie (Analytik)
TTITLE15=Elija
TTITLE16=Alles, was lebt, ist heilig
TTITLE17=Morgendämmerung
EXTD=
EXTT0=
EXTT1=
EXTT2=
EXTT3=
EXTT4=
EXTT5=
EXTT6=
EXTT7=
EXTT8=
EXTT9=
EXTT10=
EXTT11=
EXTT12=
EXTT13=
EXTT14=
EXTT15=
EXTT16=
EXTT17=
PLAYORDER=
